<svg xmlns="http://www.w3.org/2000/svg" xml:space="preserve" id="Layer_1" x="0" y="0" style="enable-background:new 0 0 1604 320" version="1.1" viewBox="0 0 1604 320"><style>.st0{fill-rule:evenodd;clip-rule:evenodd;fill:#fb651e}</style><g id="Group-19"><path id="Fill-1" d="M0 320h320V0H0z" class="st0"/><path id="Fill-2" d="M173 175.9V247h-27v-71.1L77.1 73H110l49.6 76L209 73h32.9z" style="fill-rule:evenodd;clip-rule:evenodd;fill:#fff"/><g id="Group-18" transform="translate(425.854 73.217)"><path id="Fill-3" d="M81.8 34.1C52.2 34.1 30 57 30 86.6s22.2 52.7 51.8 52.7c19 0 35.5-9.8 44.4-26.3l25.4 15.1c-14.2 24.3-40.8 40.1-69.8 40.1C36.2 168.1 0 131.9 0 86.6 0 41.2 36.2 5 81.8 5c29.3 0 55.6 15.6 69.8 40.1l-25.4 15.1c-9-16.5-25.4-26.1-44.4-26.1" class="st0"/><path id="Fill-5" d="M249.2 107.2c0-18.5-13.5-32.5-30.9-32.5-17.9 0-31.4 14-31.4 32.5s13.5 32.5 31.4 32.5c17.1 0 30.9-14 30.9-32.5m-91.4 0c0-33.4 26.8-60.2 60.5-60.2 33.2 0 60 26.8 60 60.2s-26.8 60.2-60 60.2c-33.7 0-60.5-26.8-60.5-60.2" class="st0"/><path id="Fill-7" d="M467.1 97.6v67.2h-29v-62.1c0-17.4-8.5-28.4-21.3-28.4-13.1 0-22.7 11-22.7 28.4v62.1h-28v-62.1c0-17.4-8.8-28.4-21.7-28.4-12.9 0-22.3 11-22.3 28.4v62.1h-29v-115h29v14.7c7.1-11 18.1-17.9 31.6-17.9 14.7 0 26.3 8.3 33.4 21.2 7.3-11.5 20.8-21.2 37.8-21.2 25.5 0 42.2 22.5 42.2 51" class="st0"/><path id="Fill-9" d="M570.2 108.4c0-19.2-11.9-33-28.6-33-16.3 0-28.6 13.1-28.6 32.7 0 19.5 12.6 32.7 29.1 32.7 16.2-.1 28.1-13.6 28.1-32.4m-22.5 59.4c-16 0-27.8-7.3-34.6-17.4v14.4h-29V4.8h29v59c7-9.4 18.8-16.2 34.1-16.2 29.7 0 52.4 25.6 52.9 60.1.5 34.9-22.7 60.1-52.4 60.1" class="st0"/><path id="Fill-11" d="M612.1 164.8h29v-115h-29v115zm-3.7-147.6c0-9.8 8.2-17.2 18.1-17.2 9.6 0 17.6 7.3 17.6 17.2 0 9.8-8 17.2-17.6 17.2-9.8-.1-18.1-7.4-18.1-17.2z" class="st0"/><path id="Fill-13" d="M766.1 98.1v66.7h-28v-60.5c0-18.5-9.7-30-23.7-30-15.4 0-26.3 14-26.3 30.5v60h-28v-115h28v14.5c7.8-10.8 20.3-17.7 34.9-17.7 25.8 0 43.1 22 43.1 51.5" class="st0"/><path id="Fill-14" d="M854.1 113.8v-2.5l-29.3 5.7c-9.8 2.3-15.8 7.3-15.8 14 0 7.1 6.5 12.4 17.2 12.1 15.4-.5 27.9-13.9 27.9-29.3m28-18.4v69.4h-28v-13.3c-8.5 9.2-21.8 16-36.5 16.3-19.5 0-36.7-12.8-36.7-34.8 0-20.8 15.6-32.7 38.8-37.3l33.7-6.4c-2.3-9.6-9.6-16.9-20.7-16.9-11 0-21.3 6.9-27.5 15.6l-21.1-15.3c10.8-15.1 29.8-25.2 48.7-25.2 28.2-.2 49.3 19.3 49.3 47.9" class="st0"/><path id="Fill-15" d="M941.1 75.8V124c0 9.4 4.1 13.7 12.6 13.7h14.4v27h-18.4c-24.5 0-36.6-12-36.6-37.2V75.8h-21v-26h20V21.4l29-8.9v37.3h27v26h-27z" class="st0"/><path id="Fill-16" d="M1069 107.2c0-18.5-13.5-32.5-30.9-32.5-17.9 0-31.4 14-31.4 32.5s13.5 32.5 31.4 32.5c17.1 0 30.9-14 30.9-32.5m-91.4 0c0-33.4 26.8-60.2 60.5-60.2 33.2 0 60 26.8 60 60.2s-26.8 60.2-60 60.2c-33.7 0-60.5-26.8-60.5-60.2" class="st0"/><path id="Fill-17" d="M1178.1 47.3v27.9c-25.9 0-37 12.6-37 29.1v60.5h-28v-115h28v14.4c7.9-10.3 20.6-16.9 37-16.9" class="st0"/></g></g></svg>